<svg xmlns="http://www.w3.org/2000/svg" viewBox="0 0 730.67 730.67"><defs><style>.cls-1{fill:#0043ce;}.cls-2{fill:#fff;}</style></defs><g id="Layer_2" data-name="Layer 2"><g id="Layer_1-2" data-name="Layer 1"><path class="cls-1" d="M623.66,107A365.33,365.33,0,0,0,107,623.66,365.33,365.33,0,1,0,623.66,107Z"/><path class="cls-2" d="M348.05,240.05l0,242.69a2.61,2.61,0,0,1-2.62,2.61H287.87a2.61,2.61,0,0,1-2.61-2.61V381.62a2.61,2.61,0,0,0-4.46-1.85L232,428.56a2.61,2.61,0,0,1-3.69,0l-48.64-48.64a2.61,2.61,0,0,0-4.46,1.84l-.15,55.08a2.6,2.6,0,0,1-.76,1.84l-57.53,57.53a2.61,2.61,0,0,1-4.46-1.85V240.05a2.61,2.61,0,0,1,4.46-1.85L228.35,349.75a2.61,2.61,0,0,0,3.69,0L343.59,238.2A2.61,2.61,0,0,1,348.05,240.05Z"/><path class="cls-2" d="M382.63,236.3V482.74a2.61,2.61,0,0,0,2.61,2.61h57.18a2.61,2.61,0,0,0,2.61-2.61V409.22a2.61,2.61,0,0,1,2.61-2.61H553a2.61,2.61,0,0,1,2.61,2.61v27.62a2.6,2.6,0,0,0,.76,1.84l57.53,57.53a2.61,2.61,0,0,0,4.46-1.85V236.3a2.61,2.61,0,0,0-2.61-2.61H385.24A2.61,2.61,0,0,0,382.63,236.3Zm65,60.79H553a2.61,2.61,0,0,1,2.61,2.62v41.46a2.61,2.61,0,0,1-2.61,2.62H447.64a2.61,2.61,0,0,1-2.61-2.62V299.71A2.61,2.61,0,0,1,447.64,297.09Z"/></g></g></svg>