<svg xmlns="http://www.w3.org/2000/svg" viewBox="0 0 621.57 323.45"><defs><style>.cls-1{fill:#0f62fe;}</style></defs><g id="Layer_2" data-name="Layer 2"><g id="Layer_1-2" data-name="Layer 1"><path class="cls-1" d="M289.55,7.82l0,298.14a3.21,3.21,0,0,1-3.21,3.2H215.62a3.2,3.2,0,0,1-3.2-3.21V181.73a3.21,3.21,0,0,0-5.48-2.27L147,239.39a3.21,3.21,0,0,1-4.54,0L82.75,179.64a3.21,3.21,0,0,0-5.48,2.26l-.18,67.66a3.19,3.19,0,0,1-.94,2.26L5.48,322.5A3.21,3.21,0,0,1,0,320.23V7.82A3.21,3.21,0,0,1,5.48,5.55l137,137a3.19,3.19,0,0,0,4.53,0l137-137A3.21,3.21,0,0,1,289.55,7.82Z"/><path class="cls-1" d="M332,3.21V306a3.21,3.21,0,0,0,3.21,3.21h70.24a3.2,3.2,0,0,0,3.21-3.21V215.63a3.21,3.21,0,0,1,3.21-3.2H541.27a3.2,3.2,0,0,1,3.21,3.2v33.93a3.22,3.22,0,0,0,.94,2.27l70.67,70.67a3.21,3.21,0,0,0,5.48-2.27V3.21A3.21,3.21,0,0,0,618.36,0H335.24A3.21,3.21,0,0,0,332,3.21ZM411.9,77.89H541.27a3.21,3.21,0,0,1,3.21,3.21V132a3.2,3.2,0,0,1-3.21,3.21H411.9a3.21,3.21,0,0,1-3.21-3.21V81.1A3.21,3.21,0,0,1,411.9,77.89Z"/></g></g></svg>