<svg xmlns="http://www.w3.org/2000/svg" viewBox="0 0 1594.87 263.29"><defs><style>.cls-1{fill:#0f62fe;}.cls-2{fill:#4589ff;fill-rule:evenodd;}</style></defs><g id="Layer_2" data-name="Layer 2"><g id="Layer_1-2" data-name="Layer 1"><path class="cls-1" d="M235.7,6.36l0,242.69a2.61,2.61,0,0,1-2.61,2.62H175.52a2.61,2.61,0,0,1-2.61-2.62V147.94a2.61,2.61,0,0,0-4.46-1.85L119.7,194.87a2.62,2.62,0,0,1-3.7,0L67.36,146.23a2.61,2.61,0,0,0-4.46,1.84l-.14,55.08A2.65,2.65,0,0,1,62,205L4.46,262.52A2.61,2.61,0,0,1,0,260.68V6.36A2.61,2.61,0,0,1,4.46,4.52L116,116.06a2.62,2.62,0,0,0,3.7,0L231.24,4.52A2.61,2.61,0,0,1,235.7,6.36Z"/><path class="cls-1" d="M270.28,2.61V249.05a2.61,2.61,0,0,0,2.61,2.62h57.18a2.62,2.62,0,0,0,2.62-2.62V175.53a2.61,2.61,0,0,1,2.61-2.61H440.61a2.61,2.61,0,0,1,2.61,2.61v27.62A2.63,2.63,0,0,0,444,205l57.52,57.52a2.61,2.61,0,0,0,4.46-1.84V2.61A2.61,2.61,0,0,0,503.36,0H272.89A2.61,2.61,0,0,0,270.28,2.61Zm65,60.8H440.61A2.61,2.61,0,0,1,443.22,66v41.47a2.61,2.61,0,0,1-2.61,2.61H335.3a2.61,2.61,0,0,1-2.61-2.61V66A2.61,2.61,0,0,1,335.3,63.41Z"/><path class="cls-2" d="M763.68,0,735.09,27.64v82.72h77.25l27.86-26.8V0Zm36.05,84.93H761.37v-45l13.76-15.56H815.5L816,69.79Z"/><polygon class="cls-2" points="863.32 110.36 863.32 0 887.49 0 887.49 49.3 941.1 49.93 941.1 0 965.27 0 965.27 110.36 941.1 110.36 941.1 75.15 887.49 75.15 887.49 110.36 863.32 110.36"/><path class="cls-2" d="M988.4,0V110.36h24.17V75.15h54.66v35.21h24.17V0Zm78.83,49-54.66.21V24.81l54.66-.11Z"/><polygon class="cls-2" points="1114.53 110.36 1114.53 0 1140.28 0 1165.5 24.18 1190.73 0 1217.53 0 1217.53 110.36 1192.31 110.36 1191.25 32.06 1165.71 55.92 1139.75 32.58 1139.75 110.36 1114.53 110.36"/><polygon class="cls-2" points="1239.6 110.36 1239.6 0 1265.78 0 1291.21 24.18 1316.96 0 1343.66 0 1343.66 110.36 1316.86 110.36 1316.86 32.58 1291 56.13 1265.14 32.69 1265.14 110.36 1239.6 110.36"/><polygon class="cls-2" points="1364.68 110.36 1364.68 0 1468.74 0 1468.74 23.12 1391.17 23.65 1391.17 43.09 1468.74 43.09 1468.74 66.22 1391.17 66.74 1391.17 86.19 1468.74 86.19 1468.74 110.36 1364.68 110.36"/><path class="cls-2" d="M1568.06,0h-77.25V110.36h75.36l14.3-13.87,14.4-13.77V26.8Zm2.63,69.27-17,16.92h-37.42V23.12h37.63l16.82,16.93Z"/><polygon class="cls-2" points="610.01 110.36 610.01 2.42 634.5 26.91 660.88 52.13 688.42 27.22 714.07 1.58 713.96 110.36 688.84 110.36 688.84 61.38 661.72 84.82 634.18 62.01 634.18 110.36 610.01 110.36"/><polygon class="cls-2" points="735.19 182.36 762.63 153.46 839.14 153.46 839.14 180.89 774.71 180.57 761.89 193.92 762.21 216.21 762.52 238.59 820.23 238.59 820.23 222.83 797.1 222.83 797.1 195.5 839.14 195.5 839.14 263.29 735.09 263.29 735.19 182.36"/><path class="cls-2" d="M610,153.46V263.29h25.65v-35h54.23v35h23.65l.53-109.83Zm79.88,49.08-54.23-.1V178.89h54.23Z"/><polygon class="cls-2" points="863.32 179.84 889.81 153.46 966.32 153.46 966.32 177.63 902.84 177.63 887.49 193.4 887.7 216.21 888.02 239.12 947.93 239.12 947.93 221.25 923.13 221.46 923.76 197.08 965.8 197.08 965.8 263.29 863.32 263.29 863.32 179.84"/><path class="cls-2" d="M1016.25,153.46l-13.35,13.35-13.24,13.45L988.92,222l-.73,41.3H1315.6l14.08-13.35,14-13.87V153.46ZM1311,231.13l-7.57,7.46-144.62-.21-144.63-.31-.32-22.18-.21-22.28,7.78-8,7.88-8,144.32.21,144.31.32.31,22.7.21,22.7Z"/><polygon class="cls-2" points="1365.73 263.29 1365.73 153.46 1389.91 153.46 1390.12 195.71 1390.43 238.38 1444.56 238.38 1444.56 153.46 1468.74 153.46 1468.74 263.29 1365.73 263.29"/><polygon class="cls-2" points="1490.81 263.29 1490.81 153.46 1503.21 153.46 1514.86 153.71 1569.32 224.72 1570.69 188.56 1570.69 153.46 1594.87 153.46 1594.87 263.29 1569.32 263.29 1514.86 191.82 1514.86 263.29 1490.81 263.29"/></g></g></svg>